<?xml version="1.0" standalone="no"?><!DOCTYPE svg PUBLIC "-//W3C//DTD SVG 1.1//EN" "http://www.w3.org/Graphics/SVG/1.1/DTD/svg11.dtd"><svg t="1589469282544" class="icon" viewBox="0 0 1024 1024" version="1.1" xmlns="http://www.w3.org/2000/svg" p-id="2225" width="200" height="200" xmlns:xlink="http://www.w3.org/1999/xlink"><defs><style type="text/css"></style></defs><path d="M768 640v192H256V192h192v448z" fill="#E0EBFE" p-id="2226"></path><path d="M160 992h704c70.592 0 128-57.408 128-128V160c0-70.592-57.408-128-128-128H160C89.408 32 32 89.408 32 160v704c0 70.592 57.408 128 128 128zM96 160c0-35.296 28.704-64 64-64h704c35.296 0 64 28.704 64 64v704c0 35.296-28.704 64-64 64H160c-35.296 0-64-28.704-64-64V160z" fill="#5465CF" p-id="2227"></path><path d="M256 864h512a32 32 0 0 0 32-32v-192a32 32 0 0 0-32-32h-288V192a32 32 0 0 0-32-32H256a32 32 0 0 0-32 32v640a32 32 0 0 0 32 32zM288 224h128v416a32 32 0 0 0 32 32h288v128H288V224z" fill="#5465CF" p-id="2228"></path></svg>